<svg width="33" height="33" viewBox="0 0 33 33" fill="none" xmlns="http://www.w3.org/2000/svg">
<path d="M27.0835 7.25H5.0835C4.95089 7.25 4.82371 7.30268 4.72994 7.39645C4.63617 7.49021 4.5835 7.61739 4.5835 7.75C4.5835 7.88261 4.63617 8.00979 4.72994 8.10355C4.82371 8.19732 4.95089 8.25 5.0835 8.25H6.5835V26.75C6.5835 27.1478 6.74153 27.5294 7.02284 27.8107C7.30414 28.092 7.68567 28.25 8.0835 28.25H24.0835C24.4813 28.25 24.8629 28.092 25.1442 27.8107C25.4255 27.5294 25.5835 27.1478 25.5835 26.75V8.25H27.0835C27.2161 8.25 27.3433 8.19732 27.437 8.10355C27.5308 8.00979 27.5835 7.88261 27.5835 7.75C27.5835 7.61739 27.5308 7.49021 27.437 7.39645C27.3433 7.30268 27.2161 7.25 27.0835 7.25ZM24.5835 26.75C24.5835 26.8826 24.5308 27.0098 24.437 27.1036C24.3433 27.1973 24.2161 27.25 24.0835 27.25H8.0835C7.95089 27.25 7.82371 27.1973 7.72994 27.1036C7.63617 27.0098 7.5835 26.8826 7.5835 26.75V8.25H24.5835V26.75ZM10.5835 3.75C10.5835 3.61739 10.6362 3.49021 10.7299 3.39645C10.8237 3.30268 10.9509 3.25 11.0835 3.25H21.0835C21.2161 3.25 21.3433 3.30268 21.437 3.39645C21.5308 3.49021 21.5835 3.61739 21.5835 3.75C21.5835 3.88261 21.5308 4.00979 21.437 4.10355C21.3433 4.19732 21.2161 4.25 21.0835 4.25H11.0835C10.9509 4.25 10.8237 4.19732 10.7299 4.10355C10.6362 4.00979 10.5835 3.88261 10.5835 3.75Z" fill="#E73827"/>
</svg>
