<svg width="33" height="33" viewBox="0 0 33 33" fill="none" xmlns="http://www.w3.org/2000/svg">
<path d="M28.4167 13.75C28.4167 13.8826 28.3641 14.0098 28.2703 14.1036C28.1765 14.1973 28.0494 14.25 27.9167 14.25C27.7841 14.25 27.657 14.1973 27.5632 14.1036C27.4694 14.0098 27.4167 13.8826 27.4167 13.75V6.9575L18.2717 16.1038C18.1779 16.1976 18.0507 16.2503 17.918 16.2503C17.7853 16.2503 17.6581 16.1976 17.5642 16.1038C17.4704 16.0099 17.4177 15.8827 17.4177 15.75C17.4177 15.6173 17.4704 15.4901 17.5642 15.3962L26.7092 6.25H19.9167C19.7841 6.25 19.657 6.19732 19.5632 6.10355C19.4694 6.00979 19.4167 5.88261 19.4167 5.75C19.4167 5.61739 19.4694 5.49021 19.5632 5.39645C19.657 5.30268 19.7841 5.25 19.9167 5.25H27.9167C28.0494 5.25 28.1765 5.30268 28.2703 5.39645C28.3641 5.49021 28.4167 5.61739 28.4167 5.75V13.75ZM23.9167 17.25C23.7841 17.25 23.657 17.3027 23.5632 17.3964C23.4694 17.4902 23.4167 17.6174 23.4167 17.75V26.75C23.4167 26.8826 23.3641 27.0098 23.2703 27.1036C23.1765 27.1973 23.0494 27.25 22.9167 27.25H6.91675C6.78414 27.25 6.65696 27.1973 6.56319 27.1036C6.46943 27.0098 6.41675 26.8826 6.41675 26.75V10.75C6.41675 10.6174 6.46943 10.4902 6.56319 10.3964C6.65696 10.3027 6.78414 10.25 6.91675 10.25H15.9167C16.0494 10.25 16.1765 10.1973 16.2703 10.1036C16.3641 10.0098 16.4167 9.88261 16.4167 9.75C16.4167 9.61739 16.3641 9.49021 16.2703 9.39645C16.1765 9.30268 16.0494 9.25 15.9167 9.25H6.91675C6.51892 9.25 6.13739 9.40804 5.85609 9.68934C5.57478 9.97064 5.41675 10.3522 5.41675 10.75V26.75C5.41675 27.1478 5.57478 27.5294 5.85609 27.8107C6.13739 28.092 6.51892 28.25 6.91675 28.25H22.9167C23.3146 28.25 23.6961 28.092 23.9774 27.8107C24.2587 27.5294 24.4167 27.1478 24.4167 26.75V17.75C24.4167 17.6174 24.3641 17.4902 24.2703 17.3964C24.1765 17.3027 24.0494 17.25 23.9167 17.25Z" fill="#7EB5FF"/>
</svg>
