<svg width="34" height="34" viewBox="0 0 34 34" fill="none" xmlns="http://www.w3.org/2000/svg">
<path d="M10.3056 0.75H3.19453C2.72303 0.75 2.27085 0.937301 1.93745 1.2707C1.60405 1.6041 1.41675 2.05628 1.41675 2.52778V9.63889M10.3056 32.75H3.19453C2.72303 32.75 2.27085 32.5627 1.93745 32.2293C1.60405 31.8959 1.41675 31.4437 1.41675 30.9722V23.8611M24.5279 32.75H31.639C32.1105 32.75 32.5627 32.5627 32.8961 32.2293C33.2294 31.8959 33.4167 31.4437 33.4167 30.9722V23.8611M24.5279 0.75H31.639C32.1105 0.75 32.5627 0.937301 32.8961 1.2707C33.2294 1.6041 33.4167 2.05628 33.4167 2.52778V9.63889" stroke="white" stroke-width="1.08333" stroke-linecap="round" stroke-linejoin="round"/>
<path d="M24.5278 7.86133H10.3056C9.32377 7.86133 8.52783 8.65727 8.52783 9.63911V23.8613C8.52783 24.8432 9.32377 25.6391 10.3056 25.6391H24.5278C25.5097 25.6391 26.3056 24.8432 26.3056 23.8613V9.63911C26.3056 8.65727 25.5097 7.86133 24.5278 7.86133Z" stroke="white" stroke-width="1.08333"/>
</svg>
