<svg width="145" height="63" viewBox="0 0 145 63" fill="none" xmlns="http://www.w3.org/2000/svg">
<path d="M8 35.8226C10.4385 35.8226 15.377 35.9855 18.2005 36.0287C20.7075 36.067 23.9892 35.6597 27.6297 35.4943C29.2345 35.4214 30.4656 34.8353 31.7771 34.6724C33.3916 34.4718 34.0778 32.6977 34.6548 31.877C35.3649 30.8671 35.7215 29.9036 36.05 28.9151C36.3784 27.9265 36.5433 26.6159 36.8287 25.7039C37.1208 24.7708 37.8524 27.8352 38.2645 28.9077C38.6382 29.88 38.7579 30.8811 39.2069 31.8696C39.9286 33.4583 39.6585 36.0645 40.0276 37.053C40.4207 38.1059 40.8888 39.0264 41.2173 40.015C41.5386 40.9819 41.627 41.9884 41.9961 42.9769C42.3764 43.9957 42.6112 45.1132 42.8991 46.9595C43.0567 47.9699 42.9409 49.7733 42.9409 50.0448C42.9409 52.6649 43.187 46.4411 43.3912 44.9626C43.7301 42.5098 43.6791 41.3417 43.924 40.2692C44.1558 39.2535 44.5797 38.2958 44.704 37.3073C44.8324 36.2858 45.3179 35.3339 45.6464 34.0997C45.9815 32.8407 46.3858 31.8783 46.7119 30.8897C47.1195 29.6537 47.7785 28.6695 48.107 27.681C48.7063 25.8777 48.5167 22.9925 48.641 20.7747C48.7122 19.5035 49.5797 18.0608 50.0755 16.8205C50.4622 15.8534 50.7313 14.8471 51.1004 13.7771C51.5893 12.3599 52.124 11.0657 52.5362 9.90932C52.8859 8.92813 53.1919 7.93593 53.5204 6.94738C53.8489 5.95884 54.1762 4.97399 54.3004 3.98544C54.4288 2.96401 54.8332 2.25641 54.9968 2.00835C55.0423 1.93932 55.1604 2.24901 55.2023 4.81849C55.2441 7.38797 55.2441 12.2752 55.2847 14.9557C55.3403 18.629 55.6526 19.9367 55.7768 21.6238C55.9074 23.397 56.1447 25.6977 56.2689 29.9641C56.3412 32.4461 56.6368 35.0772 56.7611 36.2706C56.8699 37.3158 57.1289 38.2859 57.2532 40.5444C57.4449 44.0279 57.7835 49.3093 57.9914 50.9963C58.1693 52.4403 58.3593 54.0829 58.8514 55.0715C59.5901 56.5554 59.5896 59.1824 59.8775 60.4597C59.9419 60.7456 59.9193 60.9941 59.9599 60.9978C60.8976 61.0833 60.7362 58.6196 61.1078 56.9326C61.3687 55.7478 61.9665 53.9348 62.3787 52.365C62.7236 51.0512 63.0345 49.8967 63.1993 48.8675C63.4037 47.5912 63.8563 46.5251 64.2229 44.8392C64.7546 42.3946 65.4114 40.5222 65.8236 38.9956C66.205 37.5826 66.3957 36.0793 67.2569 32.504C67.7475 30.4671 67.9557 29.1632 68.1206 27.3946C68.1993 26.55 68.94 29.4001 69.0642 30.7984C69.1751 32.0459 69.5945 33.3494 69.8024 34.5428C69.9954 35.6506 70.9085 36.5581 71.7266 37.3011C72.5728 38.0695 73.6939 38.3699 74.8836 38.7426C75.8712 39.052 76.8927 39.1943 77.9188 39.483C79.0716 39.8075 80.5787 39.7718 81.8152 39.9767C82.7951 40.1391 83.9449 40.2655 85.9072 40.4704C91.4654 41.0506 93.2904 39.6928 95.2232 39.2387C96.4233 38.9567 97.3159 38.3748 98.342 38.2094C99.6888 37.9924 100.761 37.2246 101.868 36.7297C103.512 35.9949 104.452 35.2499 105.397 34.3453C106.388 33.3958 107.242 32.1251 107.614 31.0958C107.713 30.8214 107.656 30.4812 107.534 30.2319C107.412 29.9826 107.168 29.8197 107.043 29.9802C105.982 31.336 107.813 35.1413 108.392 37.1345C108.794 38.5159 109.211 39.5201 109.785 41.2429C111.022 44.9511 111.346 46.1005 111.917 47.0113C112.897 48.5736 113.556 43.8099 114.256 42.4919C114.923 41.2366 115.771 39.8607 116.307 38.7882C116.842 37.7187 117.493 36.2422 117.989 35.0451C118.512 33.7819 119.137 32.4558 119.67 31.3427C120.266 30.0954 120.697 28.9163 121.146 27.7229C121.633 26.4296 122.498 24.9671 122.951 23.9785C123.188 23.4609 123.566 22.99 123.974 22.4568C124.205 22.1556 124.545 21.8422 124.713 23.0591C125.678 30.081 125.126 31.6166 125.534 34.4959C125.722 35.8171 125.864 36.805 126.068 37.7935C126.305 38.9387 126.927 40.2606 127.748 41.2491C128.39 42.0229 129.304 42.7288 130.902 43.0213C131.275 43.0621 131.519 43.1435 131.847 43.1855C132.176 43.2274 132.582 43.2274 133 43.2274" stroke="url(#paint0_linear_7_90)" stroke-width="4" stroke-linecap="round"/>
<path d="M37.478 42L32.486 19.6H38.15L40.87 33.424L44.774 19.6H49.926L53.83 33.424L56.55 19.6H62.022L57.03 42H51.206L47.27 27.728L43.302 42H37.478ZM64.606 42V19.6H70.11V28.208H79.326V19.6H84.83V42H79.326V33.232H70.11V42H64.606ZM88.5435 42V19.6H99.6475C101.184 19.6 102.528 19.8667 103.68 20.4C104.853 20.9333 105.77 21.68 106.432 22.64C107.093 23.5787 107.424 24.6667 107.424 25.904C107.424 26.8213 107.189 27.6853 106.72 28.496C106.272 29.2853 105.653 29.9573 104.864 30.512C105.866 31.0453 106.656 31.7387 107.232 32.592C107.829 33.4453 108.128 34.384 108.128 35.408C108.128 36.7093 107.797 37.8613 107.136 38.864C106.474 39.8453 105.546 40.6133 104.352 41.168C103.157 41.7227 101.77 42 100.192 42H88.5435ZM94.0475 28.528H99.2955C100.106 28.528 100.746 28.3253 101.216 27.92C101.685 27.5147 101.92 26.9813 101.92 26.32C101.92 25.6373 101.685 25.104 101.216 24.72C100.746 24.3147 100.106 24.112 99.2955 24.112H94.0475V28.528ZM94.0475 37.488H99.7755C100.629 37.488 101.301 37.2747 101.792 36.848C102.304 36.4213 102.56 35.8453 102.56 35.12C102.56 34.3947 102.304 33.8187 101.792 33.392C101.301 32.9653 100.629 32.752 99.7755 32.752H94.0475V37.488Z" fill="white"/>
<defs>
<linearGradient id="paint0_linear_7_90" x1="70.5" y1="2" x2="70.5" y2="61" gradientUnits="userSpaceOnUse">
<stop stop-color="#F85032"/>
<stop offset="0.461538" stop-color="#F85032" stop-opacity="0.5"/>
<stop offset="0.778846" stop-color="#E73827"/>
</linearGradient>
</defs>
</svg>
